# xmcd CD database file
#
# Track frame offsets:
#	183
#	37408
#	63133
#	87358
#	106108
#	123858
#	144958
#	159833
#	190708
#	225208
#	241308
#	276133
#	292108
#
# Disc length: 4376 seconds
#
# Revision: 1
# Processed by: cddbd v1.5.2PL0 Copyright (c) Steve Scherf et al.
# Submitted via: CDex 1.51
#
DISCID=a611160d
DTITLE=Furio Di Castri, Paolo Fresu, Jon Balke, Pierre Favre - Mythscapes
DYEAR=1995
DGENRE=Jazz
TTITLE0=Mandarin's Rap # 1
TTITLE1=Picture Of Time Passing
TTITLE2=Variazione 2
TTITLE3=Monday
TTITLE4=Fellini
TTITLE5=L'Homme Nu
TTITLE6=Drum Solo
TTITLE7=Sueños
TTITLE8=Mythscapes
TTITLE9=Heavy Ballet
TTITLE10=Pacific Line
TTITLE11=Shanta
TTITLE12=Mandarin's Rap # 2 
EXTD=YEAR: 1995
EXTT0=
EXTT1=
EXTT2=
EXTT3=
EXTT4=
EXTT5=
EXTT6=
EXTT7=
EXTT8=
EXTT9=
EXTT10=
EXTT11=
EXTT12=
PLAYORDER=
